<svg width="74" height="142" viewBox="0 0 74 142" fill="none" xmlns="http://www.w3.org/2000/svg">
<path d="M-6.20702e-06 142C9.71781 142 19.3405 140.164 28.3186 136.595C37.2967 133.027 45.4544 127.798 52.3259 121.205C59.1974 114.612 64.6482 106.785 68.3671 98.1705C72.0859 89.5564 74 80.3239 74 71C74 61.6761 72.0859 52.4436 68.3671 43.8295C64.6482 35.2154 59.1974 27.3884 52.3259 20.7954C45.4544 14.2025 37.2967 8.97263 28.3186 5.40455C19.3405 1.83647 9.71781 -3.62498e-06 -7.62939e-06 -3.23464e-06L-1.31701e-06 30.1298C5.59393 30.1298 11.1331 31.1869 16.3012 33.2408C21.4693 35.2947 26.1652 38.3052 30.1207 42.1004C34.0762 45.8955 37.2139 50.401 39.3546 55.3596C41.4953 60.3182 42.5971 65.6328 42.5971 71C42.5971 76.3672 41.4953 81.6818 39.3546 86.6404C37.2139 91.599 34.0762 96.1045 30.1207 99.8996C26.1652 103.695 21.4693 106.705 16.3012 108.759C11.1331 110.813 5.59394 111.87 -4.89e-06 111.87L-6.20702e-06 142Z" fill="url(#paint0_linear_103_346)"/>
<defs>
<linearGradient id="paint0_linear_103_346" x1="19.8028" y1="142" x2="21.242" y2="-0.00125791" gradientUnits="userSpaceOnUse">
<stop stop-color="#4A494A"/>
<stop offset="1" stop-color="#241F20" stop-opacity="0"/>
</linearGradient>
</defs>
</svg>
