<svg width="618" height="288" viewBox="0 0 618 288" fill="none" xmlns="http://www.w3.org/2000/svg">
<path d="M-1.79287e-05 144C-1.95819e-05 125.09 3.56947 106.364 10.5046 88.8936C17.4398 71.4227 27.6048 55.5483 40.4192 42.1766C53.2337 28.805 68.4467 18.198 85.1897 10.9614C101.933 3.72468 119.878 1.28221e-05 138 1.20643e-05C156.122 1.13066e-05 174.067 3.72468 190.81 10.9614C207.553 18.198 222.766 28.805 235.581 42.1766C248.395 55.5483 258.56 71.4227 265.495 88.8936C272.431 106.364 276 125.09 276 144L217.438 144C217.438 133.115 215.383 122.336 211.391 112.279C207.399 102.222 201.548 93.0839 194.171 85.3867C186.795 77.6895 178.037 71.5837 168.4 67.418C158.762 63.2523 148.432 61.1083 138 61.1083C127.568 61.1083 117.238 63.2523 107.6 67.418C97.9626 71.5837 89.2054 77.6895 81.8289 85.3867C74.4524 93.0839 68.6011 102.222 64.6089 112.279C60.6168 122.336 58.5621 133.115 58.5621 144L-1.79287e-05 144Z" fill="url(#paint0_linear_165_555)" fill-opacity="0.2"/>
<path d="M166 144C166 125.09 169.569 106.364 176.505 88.8936C183.44 71.4227 193.605 55.5483 206.419 42.1766C219.234 28.805 234.447 18.198 251.19 10.9614C267.933 3.72468 285.878 1.28221e-05 304 1.20643e-05C322.122 1.13066e-05 340.067 3.72468 356.81 10.9614C373.553 18.198 388.766 28.805 401.581 42.1766C414.395 55.5483 424.56 71.4227 431.495 88.8936C438.431 106.364 442 125.09 442 144L383.438 144C383.438 133.115 381.383 122.336 377.391 112.279C373.399 102.222 367.548 93.0839 360.171 85.3867C352.795 77.6895 344.037 71.5837 334.4 67.418C324.762 63.2523 314.432 61.1083 304 61.1083C293.568 61.1083 283.238 63.2523 273.6 67.418C263.963 71.5837 255.205 77.6895 247.829 85.3867C240.452 93.0839 234.601 102.222 230.609 112.279C226.617 122.336 224.562 133.115 224.562 144L166 144Z" fill="url(#paint1_linear_165_555)" fill-opacity="0.2"/>
<path d="M342 144C342 125.09 345.569 106.364 352.505 88.8936C359.44 71.4227 369.605 55.5483 382.419 42.1766C395.234 28.805 410.447 18.198 427.19 10.9614C443.933 3.72468 461.878 1.28221e-05 480 1.20643e-05C498.122 1.13066e-05 516.067 3.72468 532.81 10.9614C549.553 18.198 564.766 28.805 577.581 42.1766C590.395 55.5483 600.56 71.4227 607.495 88.8936C614.431 106.364 618 125.09 618 144L559.438 144C559.438 133.115 557.383 122.336 553.391 112.279C549.399 102.222 543.548 93.0839 536.171 85.3867C528.795 77.6895 520.037 71.5837 510.4 67.418C500.762 63.2523 490.432 61.1083 480 61.1083C469.568 61.1083 459.238 63.2523 449.6 67.418C439.963 71.5837 431.205 77.6895 423.829 85.3867C416.452 93.0839 410.601 102.222 406.609 112.279C402.617 122.336 400.562 133.115 400.562 144L342 144Z" fill="url(#paint2_linear_165_555)" fill-opacity="0.2"/>
<defs>
<linearGradient id="paint0_linear_165_555" x1="-2.92659e-05" y1="105.465" x2="276.003" y2="102.671" gradientUnits="userSpaceOnUse">
<stop stop-color="#4A494A"/>
<stop offset="1" stop-color="#241F20" stop-opacity="0"/>
</linearGradient>
<linearGradient id="paint1_linear_165_555" x1="166" y1="105.465" x2="442.003" y2="102.671" gradientUnits="userSpaceOnUse">
<stop stop-color="#4A494A"/>
<stop offset="1" stop-color="#241F20" stop-opacity="0"/>
</linearGradient>
<linearGradient id="paint2_linear_165_555" x1="342" y1="105.465" x2="618.003" y2="102.671" gradientUnits="userSpaceOnUse">
<stop stop-color="#4A494A"/>
<stop offset="1" stop-color="#241F20" stop-opacity="0"/>
</linearGradient>
</defs>
</svg>
