<svg width="235" height="449" viewBox="0 0 235 449" fill="none" xmlns="http://www.w3.org/2000/svg">
<line y1="0.5" x2="453" y2="0.5" stroke="#434343" stroke-opacity="0.16"/>
<line y1="0.5" x2="453" y2="0.5" stroke="#434343" stroke-opacity="0.16"/>
<line y1="56.5" x2="453" y2="56.5" stroke="#434343" stroke-opacity="0.16"/>
<line y1="56.5" x2="453" y2="56.5" stroke="#434343" stroke-opacity="0.16"/>
<line y1="112.5" x2="453" y2="112.5" stroke="#434343" stroke-opacity="0.16"/>
<line y1="112.5" x2="453" y2="112.5" stroke="#434343" stroke-opacity="0.16"/>
<line y1="168.5" x2="453" y2="168.5" stroke="#434343" stroke-opacity="0.16"/>
<line y1="168.5" x2="453" y2="168.5" stroke="#434343" stroke-opacity="0.16"/>
<line y1="224.5" x2="453" y2="224.5" stroke="#434343" stroke-opacity="0.16"/>
<line y1="224.5" x2="453" y2="224.5" stroke="#434343" stroke-opacity="0.16"/>
<line y1="280.5" x2="453" y2="280.5" stroke="#434343" stroke-opacity="0.16"/>
<line y1="280.5" x2="453" y2="280.5" stroke="#434343" stroke-opacity="0.16"/>
<line y1="336.5" x2="453" y2="336.5" stroke="#434343" stroke-opacity="0.16"/>
<line y1="336.5" x2="453" y2="336.5" stroke="#434343" stroke-opacity="0.16"/>
<line y1="392.5" x2="453" y2="392.5" stroke="#434343" stroke-opacity="0.16"/>
<line y1="392.5" x2="453" y2="392.5" stroke="#434343" stroke-opacity="0.16"/>
<line y1="448.5" x2="453" y2="448.5" stroke="#434343" stroke-opacity="0.16"/>
<line y1="448.5" x2="453" y2="448.5" stroke="#434343" stroke-opacity="0.16"/>
<line x1="66.5" y1="1" x2="66.5" y2="449" stroke="#434343" stroke-opacity="0.16"/>
<line x1="66.5" y1="1" x2="66.5" y2="449" stroke="#434343" stroke-opacity="0.16"/>
<line x1="0.5" y1="1" x2="0.499978" y2="449" stroke="#434343" stroke-opacity="0.16"/>
<line x1="131.5" y1="1" x2="131.5" y2="449" stroke="#434343" stroke-opacity="0.16"/>
<line x1="131.5" y1="1" x2="131.5" y2="449" stroke="#434343" stroke-opacity="0.16"/>
<line x1="197.5" y1="1" x2="197.5" y2="449" stroke="#434343" stroke-opacity="0.16"/>
<line x1="197.5" y1="1" x2="197.5" y2="449" stroke="#434343" stroke-opacity="0.16"/>
</svg>
