<svg width="52" height="52" viewBox="0 0 52 52" fill="none" xmlns="http://www.w3.org/2000/svg">
<g clip-path="url(#clip0_103_320)">
<path d="M26 0C32.8956 0 39.5088 2.73928 44.3848 7.61522C49.2607 12.4912 52 19.1044 52 26C52 32.8956 49.2607 39.5088 44.3848 44.3848C39.5088 49.2607 32.8956 52 26 52C19.1044 52 12.4912 49.2607 7.61522 44.3848C2.73928 39.5088 0 32.8956 0 26C0 19.1044 2.73928 12.4912 7.61522 7.61522C12.4912 2.73928 19.1044 0 26 0ZM4.875 26C4.875 31.6027 7.10066 36.9759 11.0624 40.9376C15.0241 44.8993 20.3973 47.125 26 47.125C31.6027 47.125 36.9759 44.8993 40.9376 40.9376C44.8993 36.9759 47.125 31.6027 47.125 26C47.125 20.3973 44.8993 15.0241 40.9376 11.0624C36.9759 7.10066 31.6027 4.875 26 4.875C20.3973 4.875 15.0241 7.10066 11.0624 11.0624C7.10066 15.0241 4.875 20.3973 4.875 26ZM20.7318 16.9878L34.5897 25.3045C34.7095 25.3768 34.8086 25.4789 34.8773 25.6007C34.9461 25.7226 34.9822 25.8601 34.9822 26C34.9822 26.1399 34.9461 26.2774 34.8773 26.3993C34.8086 26.5211 34.7095 26.6232 34.5897 26.6955L20.7318 35.0122C20.6085 35.0865 20.4678 35.1267 20.3239 35.1287C20.1801 35.1307 20.0383 35.0945 19.913 35.0238C19.7877 34.953 19.6835 34.8503 19.6109 34.7261C19.5384 34.6019 19.5001 34.4606 19.5 34.3167V17.6865C19.4995 17.5424 19.5374 17.4007 19.6097 17.276C19.682 17.1513 19.7862 17.0481 19.9116 16.977C20.037 16.9059 20.179 16.8694 20.3231 16.8713C20.4673 16.8732 20.6083 16.9134 20.7318 16.9878Z" fill="white"/>
</g>
<defs>
<clipPath id="clip0_103_320">
<rect width="52" height="52" fill="white"/>
</clipPath>
</defs>
</svg>
