<svg width="618" height="288" viewBox="0 0 618 288" fill="none" xmlns="http://www.w3.org/2000/svg">
<path d="M-1.79287e-05 144C-1.95819e-05 162.91 3.56947 181.636 10.5046 199.106C17.4398 216.577 27.6048 232.452 40.4192 245.823C53.2337 259.195 68.4467 269.802 85.1897 277.039C101.933 284.275 119.878 288 138 288C156.122 288 174.067 284.275 190.81 277.039C207.553 269.802 222.766 259.195 235.581 245.823C248.395 232.452 258.56 216.577 265.495 199.106C272.431 181.636 276 162.91 276 144L217.438 144C217.438 154.885 215.383 165.664 211.391 175.721C207.399 185.778 201.548 194.916 194.171 202.613C186.795 210.311 178.037 216.416 168.4 220.582C158.762 224.748 148.432 226.892 138 226.892C127.568 226.892 117.238 224.748 107.6 220.582C97.9626 216.416 89.2054 210.311 81.8289 202.613C74.4524 194.916 68.6011 185.778 64.6089 175.721C60.6168 165.664 58.5621 154.885 58.5621 144L-1.79287e-05 144Z" fill="url(#paint0_linear_165_554)" fill-opacity="0.12"/>
<path d="M166 144C166 162.91 169.569 181.636 176.505 199.106C183.44 216.577 193.605 232.452 206.419 245.823C219.234 259.195 234.447 269.802 251.19 277.039C267.933 284.275 285.878 288 304 288C322.122 288 340.067 284.275 356.81 277.039C373.553 269.802 388.766 259.195 401.581 245.823C414.395 232.452 424.56 216.577 431.495 199.106C438.431 181.636 442 162.91 442 144L383.438 144C383.438 154.885 381.383 165.664 377.391 175.721C373.399 185.778 367.548 194.916 360.171 202.613C352.795 210.311 344.037 216.416 334.4 220.582C324.762 224.748 314.432 226.892 304 226.892C293.568 226.892 283.238 224.748 273.6 220.582C263.963 216.416 255.205 210.311 247.829 202.613C240.452 194.916 234.601 185.778 230.609 175.721C226.617 165.664 224.562 154.885 224.562 144L166 144Z" fill="url(#paint1_linear_165_554)" fill-opacity="0.12"/>
<path d="M342 144C342 162.91 345.569 181.636 352.505 199.106C359.44 216.577 369.605 232.452 382.419 245.823C395.234 259.195 410.447 269.802 427.19 277.039C443.933 284.275 461.878 288 480 288C498.122 288 516.067 284.275 532.81 277.039C549.553 269.802 564.766 259.195 577.581 245.823C590.395 232.452 600.56 216.577 607.495 199.106C614.431 181.636 618 162.91 618 144L559.438 144C559.438 154.885 557.383 165.664 553.391 175.721C549.399 185.778 543.548 194.916 536.171 202.613C528.795 210.311 520.037 216.416 510.4 220.582C500.762 224.748 490.432 226.892 480 226.892C469.568 226.892 459.238 224.748 449.6 220.582C439.963 216.416 431.205 210.311 423.829 202.613C416.452 194.916 410.601 185.778 406.609 175.721C402.617 165.664 400.562 154.885 400.562 144L342 144Z" fill="url(#paint2_linear_165_554)" fill-opacity="0.12"/>
<defs>
<linearGradient id="paint0_linear_165_554" x1="-2.92659e-05" y1="182.535" x2="276.003" y2="185.329" gradientUnits="userSpaceOnUse">
<stop stop-color="#4A494A"/>
<stop offset="1" stop-color="#241F20" stop-opacity="0"/>
</linearGradient>
<linearGradient id="paint1_linear_165_554" x1="166" y1="182.535" x2="442.003" y2="185.329" gradientUnits="userSpaceOnUse">
<stop stop-color="#4A494A"/>
<stop offset="1" stop-color="#241F20" stop-opacity="0"/>
</linearGradient>
<linearGradient id="paint2_linear_165_554" x1="342" y1="182.535" x2="618.003" y2="185.329" gradientUnits="userSpaceOnUse">
<stop stop-color="#4A494A"/>
<stop offset="1" stop-color="#241F20" stop-opacity="0"/>
</linearGradient>
</defs>
</svg>
