<svg width="17" height="17" viewBox="0 0 17 17" fill="none" xmlns="http://www.w3.org/2000/svg">
<path d="M11.4583 10.0833H10.7342L10.4775 9.83584C11.4069 8.75786 11.9177 7.38164 11.9167 5.95834C11.9167 4.77989 11.5672 3.62791 10.9125 2.64806C10.2578 1.66822 9.32723 0.904526 8.23849 0.453554C7.14975 0.00258165 5.95173 -0.115413 4.79592 0.11449C3.64012 0.344394 2.57845 0.91187 1.74516 1.74516C0.91187 2.57845 0.344394 3.64012 0.11449 4.79592C-0.115413 5.95173 0.00258165 7.14975 0.453554 8.23849C0.904526 9.32723 1.66822 10.2578 2.64806 10.9125C3.62791 11.5672 4.77989 11.9167 5.95834 11.9167C7.43417 11.9167 8.79084 11.3758 9.83584 10.4775L10.0833 10.7342V11.4583L14.6667 16.0325L16.0325 14.6667L11.4583 10.0833ZM5.95834 10.0833C3.67584 10.0833 1.83334 8.24084 1.83334 5.95834C1.83334 3.67584 3.67584 1.83334 5.95834 1.83334C8.24084 1.83334 10.0833 3.67584 10.0833 5.95834C10.0833 8.24084 8.24084 10.0833 5.95834 10.0833Z" fill="#939393" fill-opacity="0.6"/>
</svg>
