<svg width="59" height="118" viewBox="0 0 59 118" fill="none" xmlns="http://www.w3.org/2000/svg">
<path d="M-1.34325e-06 118C7.74799 118 15.4201 116.474 22.5783 113.509C29.7365 110.544 36.2406 106.198 41.7193 100.719C47.198 95.2406 51.5439 88.7365 54.5089 81.5783C57.4739 74.4201 59 66.748 59 59C59 51.252 57.4739 43.5799 54.5089 36.4217C51.5439 29.2635 47.198 22.7594 41.7193 17.2807C36.2406 11.802 29.7365 7.45613 22.5783 4.4911C15.4201 1.52608 7.74799 -2.91765e-06 0 -2.57897e-06L-1.35386e-06 30.9727C3.68059 30.9727 7.32514 31.6977 10.7256 33.1062C14.126 34.5147 17.2157 36.5792 19.8183 39.1817C22.4208 41.7843 24.4853 44.874 25.8938 48.2744C27.3023 51.6749 28.0273 55.3194 28.0273 59C28.0273 62.6806 27.3023 66.3251 25.8938 69.7256C24.4853 73.126 22.4208 76.2157 19.8183 78.8183C17.2157 81.4208 14.126 83.4853 10.7256 84.8938C7.32515 86.3023 3.68059 87.0273 1.06146e-08 87.0273L-1.34325e-06 118Z" fill="#EA1B38"/>
</svg>
